<svg width="118" height="122" viewBox="0 0 118 122" fill="none" xmlns="http://www.w3.org/2000/svg">
<mask id="path-1-outside-1_507_3903" maskUnits="userSpaceOnUse" x="18.293" y="0.00585938" width="81" height="69" fill="black">
<rect fill="white" x="18.293" y="0.00585938" width="81" height="69"/>
<path d="M59.878 1.22098C60.306 1.51758 60.663 1.86719 61.0285 2.23677C61.2335 2.43578 61.4387 2.63466 61.644 2.83342C61.7407 2.92858 61.8375 3.02374 61.9373 3.12178C62.2397 3.41575 62.5527 3.69404 62.8735 3.96776C63.5616 4.56109 64.2246 5.18054 64.8906 5.79828C65.3664 6.23876 65.8445 6.67457 66.3355 7.09806C67.0922 7.75054 67.8171 8.43753 68.544 9.1228C68.6408 9.21356 68.7377 9.30433 68.8375 9.39784C68.9681 9.52094 68.9681 9.52094 69.1014 9.64653C69.3327 9.86261 69.3327 9.86261 69.6628 10.0107C69.6628 10.1201 69.6628 10.2296 69.6628 10.3424C69.7607 10.3868 69.8585 10.4312 69.9593 10.477C70.3298 10.676 70.5853 10.884 70.8885 11.1735C70.9918 11.2713 71.0951 11.3691 71.2016 11.4698C71.3095 11.5732 71.4174 11.6766 71.5285 11.7831C71.7528 11.9953 71.9771 12.2074 72.2016 12.4193C72.3616 12.5706 72.3616 12.5706 72.5248 12.7249C72.9504 13.1239 73.3886 13.507 73.8303 13.8879C74.9316 14.8421 76.0005 15.8333 77.0729 16.8195C77.5242 17.2337 77.9789 17.6429 78.4422 18.0437C79.1359 18.6447 79.8063 19.2702 80.4792 19.8942C81.0616 20.4333 81.6517 20.9613 82.2521 21.4804C82.7054 21.8796 83.1495 22.2886 83.5937 22.6977C84.2509 23.3027 84.914 23.8993 85.5884 24.4851C86.6335 25.3977 87.6549 26.3364 88.6727 27.2791C89.3468 27.9035 90.0262 28.5191 90.7212 29.1203C91.1422 29.4892 91.5553 29.8663 91.9689 30.2436C92.4862 30.7155 93.005 31.1843 93.534 31.6429C94.1834 32.2071 94.8164 32.7888 95.4489 33.3719C96.0959 33.9675 96.7532 34.5503 97.4178 35.1263C97.7966 35.4853 97.8513 35.6694 97.9082 36.1932C97.8564 36.7115 97.8564 36.7115 97.193 37.3749C94.566 37.3749 91.939 37.3749 89.2324 37.3749C89.2324 46.624 89.2324 55.873 89.2324 65.4024C90.3818 65.4024 91.5311 65.4024 92.7152 65.4024C92.8794 65.5666 93.0436 65.7308 93.2127 65.8999C93.192 66.4078 93.192 66.4078 93.0469 66.895C92.4424 67.298 92.1609 67.2684 91.4405 67.2689C91.3267 67.2694 91.2129 67.27 91.0956 67.2705C90.7114 67.2719 90.3272 67.2709 89.9429 67.2699C89.6658 67.2704 89.3887 67.2711 89.1116 67.2718C88.3478 67.2736 87.5841 67.2732 86.8204 67.2725C85.9976 67.2721 85.1748 67.2736 84.352 67.2748C82.7393 67.2769 81.1266 67.2772 79.5139 67.2768C78.2037 67.2765 76.8934 67.2768 75.5832 67.2775C75.3039 67.2777 75.3039 67.2777 75.0189 67.2778C74.6407 67.278 74.2625 67.2782 73.8843 67.2784C70.3345 67.2802 66.7847 67.2799 63.2348 67.2789C59.9841 67.278 56.7334 67.2799 53.4827 67.283C50.1481 67.2862 46.8136 67.2876 43.479 67.287C41.6056 67.2867 39.7322 67.2871 37.8588 67.2894C36.2641 67.2914 34.6694 67.2916 33.0747 67.2896C32.2605 67.2886 31.4463 67.2885 30.632 67.2905C29.8875 67.2922 29.143 67.2918 28.3985 67.2894C28.1283 67.289 27.8581 67.2894 27.5879 67.2907C27.2223 67.2924 26.8568 67.291 26.4911 67.2888C26.1858 67.2888 26.1858 67.2888 25.8742 67.2889C25.3823 67.2267 25.3823 67.2267 25.0623 67.0116C24.8848 66.7292 24.8848 66.7292 24.9159 66.128C24.9604 65.9433 25.0048 65.7586 25.0506 65.5683C26.1889 64.9991 27.5924 65.4024 28.8651 65.4024C28.8651 56.1533 28.8651 46.9042 28.8651 37.3749C26.2928 37.3749 23.7206 37.3749 21.0704 37.3749C20.407 36.7115 20.407 36.7115 20.293 36.2554C20.6705 34.4708 23.1783 32.8912 24.5103 31.7375C25.0299 31.2755 25.5373 30.8008 26.0457 30.3265C26.7525 29.6671 27.4636 29.0163 28.1952 28.3843C28.9843 27.692 29.7514 26.9745 30.5235 26.2633C32.5166 24.4277 32.5166 24.4277 33.5119 23.5658C33.892 23.2329 34.2649 22.8927 34.6385 22.5526C35.1915 22.0524 35.755 21.5759 36.3384 21.1118C37.4381 20.223 38.4506 19.2444 39.4752 18.2711C40.2371 17.5476 41.0155 16.8449 41.8009 16.1469C42.6973 15.3438 43.5893 14.5362 44.4752 13.7214C45.012 13.2277 45.5509 12.7372 46.1025 12.2599C46.6982 11.7438 47.2764 11.2099 47.8542 10.6741C48.5318 10.0457 49.2148 9.42663 49.9137 8.82192C50.3594 8.42978 50.7964 8.0285 51.2333 7.62669C52.3176 6.62966 53.4035 5.63463 54.5191 4.6726C54.9677 4.28364 55.4033 3.88305 55.8349 3.47542C55.9439 3.37263 56.0528 3.26984 56.1651 3.16393C56.3832 2.95774 56.6006 2.75092 56.8174 2.5434C58.6345 0.825135 58.6345 0.825135 59.878 1.22098ZM57.8775 4.44456C57.6825 4.62862 57.4875 4.8126 57.2925 4.99651C57.1963 5.0879 57.1001 5.1793 57.001 5.27346C56.0838 6.14162 55.1419 6.97188 54.1563 7.76143C53.375 8.39291 52.6714 9.07423 51.9693 9.79172C51.5482 10.2142 51.1076 10.6013 50.6548 10.9889C50.1043 11.4736 49.5709 11.9759 49.0359 12.4776C48.2019 13.2592 47.363 14.0338 46.5106 14.7955C46.0647 15.195 45.6223 15.5983 45.18 16.0018C44.5583 16.5677 43.9311 17.126 43.2968 17.6777C42.4866 18.3876 41.6888 19.1119 40.8933 19.8382C40.195 20.4734 39.4885 21.0893 38.7535 21.6819C37.8999 22.3725 37.0938 23.1042 36.2892 23.8502C35.9233 24.1877 35.5542 24.5181 35.1775 24.8433C34.4839 25.4443 33.8133 26.0694 33.1409 26.6937C32.6557 27.1433 32.1668 27.5855 31.6637 28.0151C31.0346 28.5579 30.455 29.1471 29.8714 29.7376C29.3355 30.2774 28.7842 30.7874 28.2062 31.2814C27.8119 31.6202 27.4264 31.968 27.0408 32.3166C26.113 33.1534 25.1763 33.9779 24.2214 34.7836C24.0572 34.9272 23.893 35.0709 23.7239 35.2189C23.7239 35.2736 23.7239 35.3284 23.7239 35.3847C23.9113 35.3863 24.0987 35.3878 24.2919 35.3894C24.988 35.3961 25.684 35.407 26.38 35.4192C26.6811 35.4238 26.9822 35.4274 27.2834 35.4297C27.7166 35.4332 28.1495 35.441 28.5826 35.4495C28.717 35.4497 28.8515 35.4499 28.99 35.4501C29.5463 35.4646 29.934 35.4846 30.3931 35.8141C30.7972 36.3596 30.7735 36.7197 30.7754 37.3955C30.7767 37.5143 30.7779 37.6331 30.7792 37.7555C30.7826 38.1549 30.7812 38.5541 30.7799 38.9534C30.7813 39.2441 30.7831 39.5348 30.7851 39.8254C30.7897 40.6044 30.7903 41.3833 30.7901 42.1622C30.7906 42.8929 30.7946 43.6236 30.7983 44.3543C30.807 46.4918 30.81 48.6292 30.8137 50.7667C30.8274 55.5418 30.8411 60.3168 30.8552 65.2366C41.7462 65.2366 52.6372 65.2366 63.8582 65.2366C63.8865 56.4246 63.8371 59.5787 63.8582 50.7667C63.8658 49.0643 63.9152 45.9102 63.9195 45.1138C63.9224 44.5563 63.9233 43.9989 63.9232 43.4414C63.923 42.7307 63.9261 42.0201 63.9314 41.3095C63.9328 41.0484 63.9331 40.7873 63.9322 40.5262C63.9311 40.1739 63.934 39.8219 63.938 39.4697C63.9389 39.1734 63.9389 39.1734 63.9399 38.8711C64.0417 38.2653 64.1978 38.0681 64.6875 37.7065C65.1472 37.6411 65.5411 37.6157 66.0006 37.6207C66.1323 37.6195 66.264 37.6184 66.3996 37.6172C66.8344 37.6143 67.269 37.6162 67.7038 37.6184C68.0061 37.618 68.3085 37.6174 68.6108 37.6165C69.2444 37.6155 69.8778 37.617 70.5113 37.6201C71.3233 37.6238 72.1352 37.6217 72.9472 37.6177C73.5715 37.6153 74.1958 37.6161 74.8201 37.6178C75.1195 37.6182 75.4189 37.6177 75.7183 37.6161C76.1368 37.6144 76.5551 37.617 76.9736 37.6207C77.0973 37.6194 77.221 37.618 77.3485 37.6166C77.8813 37.6254 78.216 37.6542 78.65 37.9752C79.0463 38.4965 79.0341 38.8118 79.0362 39.4634C79.038 39.6278 79.038 39.6278 79.0399 39.7955C79.0433 40.1625 79.042 40.5293 79.0406 40.8963C79.0421 41.1594 79.0438 41.4226 79.0458 41.6858C79.0504 42.4001 79.051 43.1145 79.0508 43.8288C79.0514 44.5754 79.0556 45.322 79.0595 46.0686C79.0662 47.4823 79.0696 48.896 79.0717 50.3098C79.0744 51.9193 79.0807 53.5287 79.0874 55.1382C79.1011 58.4491 79.1096 61.7599 79.1159 65.0707C81.7429 65.0707 84.3699 65.0707 87.0765 65.0707C87.0789 64.1941 87.0813 63.3176 87.0838 62.4144C87.0921 59.5244 87.1031 56.6343 87.1156 53.7443C87.123 51.9913 87.1296 50.2384 87.1339 48.4854C87.1377 46.9579 87.1433 45.4305 87.1509 43.903C87.1549 43.0938 87.158 42.2847 87.159 41.4756C87.16 40.7145 87.1633 39.9535 87.1684 39.1924C87.1699 38.9126 87.1705 38.6329 87.1702 38.3531C87.1699 37.9719 87.1727 37.5909 87.1762 37.2098C87.1769 36.9962 87.1777 36.7826 87.1785 36.5626C87.2423 36.0481 87.2423 36.0481 87.4753 35.7309C87.8099 35.5028 88.017 35.4851 88.4205 35.4789C88.5566 35.4756 88.6927 35.4723 88.8329 35.4689C89.0522 35.4673 89.0522 35.4673 89.2759 35.4657C89.4261 35.4627 89.5763 35.4598 89.7311 35.4567C90.211 35.4477 90.6908 35.4421 91.1708 35.4366C91.4961 35.4311 91.8214 35.4253 92.1467 35.4194C92.9443 35.4053 93.7418 35.3942 94.5395 35.3847C93.9076 34.7503 93.2666 34.1293 92.6115 33.519C92.5097 33.4241 92.4079 33.3292 92.303 33.2315C91.5599 32.5448 90.7888 31.9043 89.9975 31.2736C89.3691 30.7419 88.8037 30.1549 88.2367 29.5588C87.941 29.2107 87.941 29.2107 87.574 29.2485C87.531 29.1498 87.4881 29.051 87.4438 28.9492C87.2261 28.5558 87.0171 28.3523 86.6722 28.0669C86.1051 27.5872 85.5514 27.0966 85.0034 26.595C84.3787 26.0252 83.7485 25.4635 83.1098 24.9094C82.6956 24.5442 82.29 24.1702 81.8835 23.7964C81.2897 23.2541 80.6866 22.7342 80.0592 22.2313C79.1064 21.4628 78.2194 20.6324 77.3273 19.7955C76.831 19.3302 76.3232 18.8806 75.8081 18.4363C75.3564 18.0395 74.9145 17.6322 74.4723 17.2249C73.925 16.7209 73.3761 16.2196 72.8138 15.7323C71.4511 14.5494 70.1381 13.3084 68.8131 12.0836C68.3595 11.6645 67.9051 11.2462 67.4492 10.8295C67.3596 10.7477 67.27 10.6658 67.1777 10.5814C66.9315 10.3565 66.685 10.1318 66.4385 9.90703C66.1675 9.65542 65.9027 9.39674 65.6469 9.12964C65.3786 8.81181 65.3786 8.81181 65.0192 8.84978C65.0192 8.74032 65.0192 8.63087 65.0192 8.51809C64.7904 8.28016 64.7904 8.28016 64.4802 8.03093C63.8732 7.51546 63.2822 6.98527 62.6973 6.44505C61.9335 5.74197 61.1621 5.04951 60.3755 4.37201C60.2817 4.28799 60.1878 4.20397 60.0911 4.11741C59.0966 3.24445 58.7286 3.62214 57.8775 4.44456Z"/>
</mask>
<path d="M59.878 1.22098C60.306 1.51758 60.663 1.86719 61.0285 2.23677C61.2335 2.43578 61.4387 2.63466 61.644 2.83342C61.7407 2.92858 61.8375 3.02374 61.9373 3.12178C62.2397 3.41575 62.5527 3.69404 62.8735 3.96776C63.5616 4.56109 64.2246 5.18054 64.8906 5.79828C65.3664 6.23876 65.8445 6.67457 66.3355 7.09806C67.0922 7.75054 67.8171 8.43753 68.544 9.1228C68.6408 9.21356 68.7377 9.30433 68.8375 9.39784C68.9681 9.52094 68.9681 9.52094 69.1014 9.64653C69.3327 9.86261 69.3327 9.86261 69.6628 10.0107C69.6628 10.1201 69.6628 10.2296 69.6628 10.3424C69.7607 10.3868 69.8585 10.4312 69.9593 10.477C70.3298 10.676 70.5853 10.884 70.8885 11.1735C70.9918 11.2713 71.0951 11.3691 71.2016 11.4698C71.3095 11.5732 71.4174 11.6766 71.5285 11.7831C71.7528 11.9953 71.9771 12.2074 72.2016 12.4193C72.3616 12.5706 72.3616 12.5706 72.5248 12.7249C72.9504 13.1239 73.3886 13.507 73.8303 13.8879C74.9316 14.8421 76.0005 15.8333 77.0729 16.8195C77.5242 17.2337 77.9789 17.6429 78.4422 18.0437C79.1359 18.6447 79.8063 19.2702 80.4792 19.8942C81.0616 20.4333 81.6517 20.9613 82.2521 21.4804C82.7054 21.8796 83.1495 22.2886 83.5937 22.6977C84.2509 23.3027 84.914 23.8993 85.5884 24.4851C86.6335 25.3977 87.6549 26.3364 88.6727 27.2791C89.3468 27.9035 90.0262 28.5191 90.7212 29.1203C91.1422 29.4892 91.5553 29.8663 91.9689 30.2436C92.4862 30.7155 93.005 31.1843 93.534 31.6429C94.1834 32.2071 94.8164 32.7888 95.4489 33.3719C96.0959 33.9675 96.7532 34.5503 97.4178 35.1263C97.7966 35.4853 97.8513 35.6694 97.9082 36.1932C97.8564 36.7115 97.8564 36.7115 97.193 37.3749C94.566 37.3749 91.939 37.3749 89.2324 37.3749C89.2324 46.624 89.2324 55.873 89.2324 65.4024C90.3818 65.4024 91.5311 65.4024 92.7152 65.4024C92.8794 65.5666 93.0436 65.7308 93.2127 65.8999C93.192 66.4078 93.192 66.4078 93.0469 66.895C92.4424 67.298 92.1609 67.2684 91.4405 67.2689C91.3267 67.2694 91.2129 67.27 91.0956 67.2705C90.7114 67.2719 90.3272 67.2709 89.9429 67.2699C89.6658 67.2704 89.3887 67.2711 89.1116 67.2718C88.3478 67.2736 87.5841 67.2732 86.8204 67.2725C85.9976 67.2721 85.1748 67.2736 84.352 67.2748C82.7393 67.2769 81.1266 67.2772 79.5139 67.2768C78.2037 67.2765 76.8934 67.2768 75.5832 67.2775C75.3039 67.2777 75.3039 67.2777 75.0189 67.2778C74.6407 67.278 74.2625 67.2782 73.8843 67.2784C70.3345 67.2802 66.7847 67.2799 63.2348 67.2789C59.9841 67.278 56.7334 67.2799 53.4827 67.283C50.1481 67.2862 46.8136 67.2876 43.479 67.287C41.6056 67.2867 39.7322 67.2871 37.8588 67.2894C36.2641 67.2914 34.6694 67.2916 33.0747 67.2896C32.2605 67.2886 31.4463 67.2885 30.632 67.2905C29.8875 67.2922 29.143 67.2918 28.3985 67.2894C28.1283 67.289 27.8581 67.2894 27.5879 67.2907C27.2223 67.2924 26.8568 67.291 26.4911 67.2888C26.1858 67.2888 26.1858 67.2888 25.8742 67.2889C25.3823 67.2267 25.3823 67.2267 25.0623 67.0116C24.8848 66.7292 24.8848 66.7292 24.9159 66.128C24.9604 65.9433 25.0048 65.7586 25.0506 65.5683C26.1889 64.9991 27.5924 65.4024 28.8651 65.4024C28.8651 56.1533 28.8651 46.9042 28.8651 37.3749C26.2928 37.3749 23.7206 37.3749 21.0704 37.3749C20.407 36.7115 20.407 36.7115 20.293 36.2554C20.6705 34.4708 23.1783 32.8912 24.5103 31.7375C25.0299 31.2755 25.5373 30.8008 26.0457 30.3265C26.7525 29.6671 27.4636 29.0163 28.1952 28.3843C28.9843 27.692 29.7514 26.9745 30.5235 26.2633C32.5166 24.4277 32.5166 24.4277 33.5119 23.5658C33.892 23.2329 34.2649 22.8927 34.6385 22.5526C35.1915 22.0524 35.755 21.5759 36.3384 21.1118C37.4381 20.223 38.4506 19.2444 39.4752 18.2711C40.2371 17.5476 41.0155 16.8449 41.8009 16.1469C42.6973 15.3438 43.5893 14.5362 44.4752 13.7214C45.012 13.2277 45.5509 12.7372 46.1025 12.2599C46.6982 11.7438 47.2764 11.2099 47.8542 10.6741C48.5318 10.0457 49.2148 9.42663 49.9137 8.82192C50.3594 8.42978 50.7964 8.0285 51.2333 7.62669C52.3176 6.62966 53.4035 5.63463 54.5191 4.6726C54.9677 4.28364 55.4033 3.88305 55.8349 3.47542C55.9439 3.37263 56.0528 3.26984 56.1651 3.16393C56.3832 2.95774 56.6006 2.75092 56.8174 2.5434C58.6345 0.825135 58.6345 0.825135 59.878 1.22098ZM57.8775 4.44456C57.6825 4.62862 57.4875 4.8126 57.2925 4.99651C57.1963 5.0879 57.1001 5.1793 57.001 5.27346C56.0838 6.14162 55.1419 6.97188 54.1563 7.76143C53.375 8.39291 52.6714 9.07423 51.9693 9.79172C51.5482 10.2142 51.1076 10.6013 50.6548 10.9889C50.1043 11.4736 49.5709 11.9759 49.0359 12.4776C48.2019 13.2592 47.363 14.0338 46.5106 14.7955C46.0647 15.195 45.6223 15.5983 45.18 16.0018C44.5583 16.5677 43.9311 17.126 43.2968 17.6777C42.4866 18.3876 41.6888 19.1119 40.8933 19.8382C40.195 20.4734 39.4885 21.0893 38.7535 21.6819C37.8999 22.3725 37.0938 23.1042 36.2892 23.8502C35.9233 24.1877 35.5542 24.5181 35.1775 24.8433C34.4839 25.4443 33.8133 26.0694 33.1409 26.6937C32.6557 27.1433 32.1668 27.5855 31.6637 28.0151C31.0346 28.5579 30.455 29.1471 29.8714 29.7376C29.3355 30.2774 28.7842 30.7874 28.2062 31.2814C27.8119 31.6202 27.4264 31.968 27.0408 32.3166C26.113 33.1534 25.1763 33.9779 24.2214 34.7836C24.0572 34.9272 23.893 35.0709 23.7239 35.2189C23.7239 35.2736 23.7239 35.3284 23.7239 35.3847C23.9113 35.3863 24.0987 35.3878 24.2919 35.3894C24.988 35.3961 25.684 35.407 26.38 35.4192C26.6811 35.4238 26.9822 35.4274 27.2834 35.4297C27.7166 35.4332 28.1495 35.441 28.5826 35.4495C28.717 35.4497 28.8515 35.4499 28.99 35.4501C29.5463 35.4646 29.934 35.4846 30.3931 35.8141C30.7972 36.3596 30.7735 36.7197 30.7754 37.3955C30.7767 37.5143 30.7779 37.6331 30.7792 37.7555C30.7826 38.1549 30.7812 38.5541 30.7799 38.9534C30.7813 39.2441 30.7831 39.5348 30.7851 39.8254C30.7897 40.6044 30.7903 41.3833 30.7901 42.1622C30.7906 42.8929 30.7946 43.6236 30.7983 44.3543C30.807 46.4918 30.81 48.6292 30.8137 50.7667C30.8274 55.5418 30.8411 60.3168 30.8552 65.2366C41.7462 65.2366 52.6372 65.2366 63.8582 65.2366C63.8865 56.4246 63.8371 59.5787 63.8582 50.7667C63.8658 49.0643 63.9152 45.9102 63.9195 45.1138C63.9224 44.5563 63.9233 43.9989 63.9232 43.4414C63.923 42.7307 63.9261 42.0201 63.9314 41.3095C63.9328 41.0484 63.9331 40.7873 63.9322 40.5262C63.9311 40.1739 63.934 39.8219 63.938 39.4697C63.9389 39.1734 63.9389 39.1734 63.9399 38.8711C64.0417 38.2653 64.1978 38.0681 64.6875 37.7065C65.1472 37.6411 65.5411 37.6157 66.0006 37.6207C66.1323 37.6195 66.264 37.6184 66.3996 37.6172C66.8344 37.6143 67.269 37.6162 67.7038 37.6184C68.0061 37.618 68.3085 37.6174 68.6108 37.6165C69.2444 37.6155 69.8778 37.617 70.5113 37.6201C71.3233 37.6238 72.1352 37.6217 72.9472 37.6177C73.5715 37.6153 74.1958 37.6161 74.8201 37.6178C75.1195 37.6182 75.4189 37.6177 75.7183 37.6161C76.1368 37.6144 76.5551 37.617 76.9736 37.6207C77.0973 37.6194 77.221 37.618 77.3485 37.6166C77.8813 37.6254 78.216 37.6542 78.65 37.9752C79.0463 38.4965 79.0341 38.8118 79.0362 39.4634C79.038 39.6278 79.038 39.6278 79.0399 39.7955C79.0433 40.1625 79.042 40.5293 79.0406 40.8963C79.0421 41.1594 79.0438 41.4226 79.0458 41.6858C79.0504 42.4001 79.051 43.1145 79.0508 43.8288C79.0514 44.5754 79.0556 45.322 79.0595 46.0686C79.0662 47.4823 79.0696 48.896 79.0717 50.3098C79.0744 51.9193 79.0807 53.5287 79.0874 55.1382C79.1011 58.4491 79.1096 61.7599 79.1159 65.0707C81.7429 65.0707 84.3699 65.0707 87.0765 65.0707C87.0789 64.1941 87.0813 63.3176 87.0838 62.4144C87.0921 59.5244 87.1031 56.6343 87.1156 53.7443C87.123 51.9913 87.1296 50.2384 87.1339 48.4854C87.1377 46.9579 87.1433 45.4305 87.1509 43.903C87.1549 43.0938 87.158 42.2847 87.159 41.4756C87.16 40.7145 87.1633 39.9535 87.1684 39.1924C87.1699 38.9126 87.1705 38.6329 87.1702 38.3531C87.1699 37.9719 87.1727 37.5909 87.1762 37.2098C87.1769 36.9962 87.1777 36.7826 87.1785 36.5626C87.2423 36.0481 87.2423 36.0481 87.4753 35.7309C87.8099 35.5028 88.017 35.4851 88.4205 35.4789C88.5566 35.4756 88.6927 35.4723 88.8329 35.4689C89.0522 35.4673 89.0522 35.4673 89.2759 35.4657C89.4261 35.4627 89.5763 35.4598 89.7311 35.4567C90.211 35.4477 90.6908 35.4421 91.1708 35.4366C91.4961 35.4311 91.8214 35.4253 92.1467 35.4194C92.9443 35.4053 93.7418 35.3942 94.5395 35.3847C93.9076 34.7503 93.2666 34.1293 92.6115 33.519C92.5097 33.4241 92.4079 33.3292 92.303 33.2315C91.5599 32.5448 90.7888 31.9043 89.9975 31.2736C89.3691 30.7419 88.8037 30.1549 88.2367 29.5588C87.941 29.2107 87.941 29.2107 87.574 29.2485C87.531 29.1498 87.4881 29.051 87.4438 28.9492C87.2261 28.5558 87.0171 28.3523 86.6722 28.0669C86.1051 27.5872 85.5514 27.0966 85.0034 26.595C84.3787 26.0252 83.7485 25.4635 83.1098 24.9094C82.6956 24.5442 82.29 24.1702 81.8835 23.7964C81.2897 23.2541 80.6866 22.7342 80.0592 22.2313C79.1064 21.4628 78.2194 20.6324 77.3273 19.7955C76.831 19.3302 76.3232 18.8806 75.8081 18.4363C75.3564 18.0395 74.9145 17.6322 74.4723 17.2249C73.925 16.7209 73.3761 16.2196 72.8138 15.7323C71.4511 14.5494 70.1381 13.3084 68.8131 12.0836C68.3595 11.6645 67.9051 11.2462 67.4492 10.8295C67.3596 10.7477 67.27 10.6658 67.1777 10.5814C66.9315 10.3565 66.685 10.1318 66.4385 9.90703C66.1675 9.65542 65.9027 9.39674 65.6469 9.12964C65.3786 8.81181 65.3786 8.81181 65.0192 8.84978C65.0192 8.74032 65.0192 8.63087 65.0192 8.51809C64.7904 8.28016 64.7904 8.28016 64.4802 8.03093C63.8732 7.51546 63.2822 6.98527 62.6973 6.44505C61.9335 5.74197 61.1621 5.04951 60.3755 4.37201C60.2817 4.28799 60.1878 4.20397 60.0911 4.11741C59.0966 3.24445 58.7286 3.62214 57.8775 4.44456Z" fill="#F9FAFB"/>
<path d="M59.878 1.22098C60.306 1.51758 60.663 1.86719 61.0285 2.23677C61.2335 2.43578 61.4387 2.63466 61.644 2.83342C61.7407 2.92858 61.8375 3.02374 61.9373 3.12178C62.2397 3.41575 62.5527 3.69404 62.8735 3.96776C63.5616 4.56109 64.2246 5.18054 64.8906 5.79828C65.3664 6.23876 65.8445 6.67457 66.3355 7.09806C67.0922 7.75054 67.8171 8.43753 68.544 9.1228C68.6408 9.21356 68.7377 9.30433 68.8375 9.39784C68.9681 9.52094 68.9681 9.52094 69.1014 9.64653C69.3327 9.86261 69.3327 9.86261 69.6628 10.0107C69.6628 10.1201 69.6628 10.2296 69.6628 10.3424C69.7607 10.3868 69.8585 10.4312 69.9593 10.477C70.3298 10.676 70.5853 10.884 70.8885 11.1735C70.9918 11.2713 71.0951 11.3691 71.2016 11.4698C71.3095 11.5732 71.4174 11.6766 71.5285 11.7831C71.7528 11.9953 71.9771 12.2074 72.2016 12.4193C72.3616 12.5706 72.3616 12.5706 72.5248 12.7249C72.9504 13.1239 73.3886 13.507 73.8303 13.8879C74.9316 14.8421 76.0005 15.8333 77.0729 16.8195C77.5242 17.2337 77.9789 17.6429 78.4422 18.0437C79.1359 18.6447 79.8063 19.2702 80.4792 19.8942C81.0616 20.4333 81.6517 20.9613 82.2521 21.4804C82.7054 21.8796 83.1495 22.2886 83.5937 22.6977C84.2509 23.3027 84.914 23.8993 85.5884 24.4851C86.6335 25.3977 87.6549 26.3364 88.6727 27.2791C89.3468 27.9035 90.0262 28.5191 90.7212 29.1203C91.1422 29.4892 91.5553 29.8663 91.9689 30.2436C92.4862 30.7155 93.005 31.1843 93.534 31.6429C94.1834 32.2071 94.8164 32.7888 95.4489 33.3719C96.0959 33.9675 96.7532 34.5503 97.4178 35.1263C97.7966 35.4853 97.8513 35.6694 97.9082 36.1932C97.8564 36.7115 97.8564 36.7115 97.193 37.3749C94.566 37.3749 91.939 37.3749 89.2324 37.3749C89.2324 46.624 89.2324 55.873 89.2324 65.4024C90.3818 65.4024 91.5311 65.4024 92.7152 65.4024C92.8794 65.5666 93.0436 65.7308 93.2127 65.8999C93.192 66.4078 93.192 66.4078 93.0469 66.895C92.4424 67.298 92.1609 67.2684 91.4405 67.2689C91.3267 67.2694 91.2129 67.27 91.0956 67.2705C90.7114 67.2719 90.3272 67.2709 89.9429 67.2699C89.6658 67.2704 89.3887 67.2711 89.1116 67.2718C88.3478 67.2736 87.5841 67.2732 86.8204 67.2725C85.9976 67.2721 85.1748 67.2736 84.352 67.2748C82.7393 67.2769 81.1266 67.2772 79.5139 67.2768C78.2037 67.2765 76.8934 67.2768 75.5832 67.2775C75.3039 67.2777 75.3039 67.2777 75.0189 67.2778C74.6407 67.278 74.2625 67.2782 73.8843 67.2784C70.3345 67.2802 66.7847 67.2799 63.2348 67.2789C59.9841 67.278 56.7334 67.2799 53.4827 67.283C50.1481 67.2862 46.8136 67.2876 43.479 67.287C41.6056 67.2867 39.7322 67.2871 37.8588 67.2894C36.2641 67.2914 34.6694 67.2916 33.0747 67.2896C32.2605 67.2886 31.4463 67.2885 30.632 67.2905C29.8875 67.2922 29.143 67.2918 28.3985 67.2894C28.1283 67.289 27.8581 67.2894 27.5879 67.2907C27.2223 67.2924 26.8568 67.291 26.4911 67.2888C26.1858 67.2888 26.1858 67.2888 25.8742 67.2889C25.3823 67.2267 25.3823 67.2267 25.0623 67.0116C24.8848 66.7292 24.8848 66.7292 24.9159 66.128C24.9604 65.9433 25.0048 65.7586 25.0506 65.5683C26.1889 64.9991 27.5924 65.4024 28.8651 65.4024C28.8651 56.1533 28.8651 46.9042 28.8651 37.3749C26.2928 37.3749 23.7206 37.3749 21.0704 37.3749C20.407 36.7115 20.407 36.7115 20.293 36.2554C20.6705 34.4708 23.1783 32.8912 24.5103 31.7375C25.0299 31.2755 25.5373 30.8008 26.0457 30.3265C26.7525 29.6671 27.4636 29.0163 28.1952 28.3843C28.9843 27.692 29.7514 26.9745 30.5235 26.2633C32.5166 24.4277 32.5166 24.4277 33.5119 23.5658C33.892 23.2329 34.2649 22.8927 34.6385 22.5526C35.1915 22.0524 35.755 21.5759 36.3384 21.1118C37.4381 20.223 38.4506 19.2444 39.4752 18.2711C40.2371 17.5476 41.0155 16.8449 41.8009 16.1469C42.6973 15.3438 43.5893 14.5362 44.4752 13.7214C45.012 13.2277 45.5509 12.7372 46.1025 12.2599C46.6982 11.7438 47.2764 11.2099 47.8542 10.6741C48.5318 10.0457 49.2148 9.42663 49.9137 8.82192C50.3594 8.42978 50.7964 8.0285 51.2333 7.62669C52.3176 6.62966 53.4035 5.63463 54.5191 4.6726C54.9677 4.28364 55.4033 3.88305 55.8349 3.47542C55.9439 3.37263 56.0528 3.26984 56.1651 3.16393C56.3832 2.95774 56.6006 2.75092 56.8174 2.5434C58.6345 0.825135 58.6345 0.825135 59.878 1.22098ZM57.8775 4.44456C57.6825 4.62862 57.4875 4.8126 57.2925 4.99651C57.1963 5.0879 57.1001 5.1793 57.001 5.27346C56.0838 6.14162 55.1419 6.97188 54.1563 7.76143C53.375 8.39291 52.6714 9.07423 51.9693 9.79172C51.5482 10.2142 51.1076 10.6013 50.6548 10.9889C50.1043 11.4736 49.5709 11.9759 49.0359 12.4776C48.2019 13.2592 47.363 14.0338 46.5106 14.7955C46.0647 15.195 45.6223 15.5983 45.18 16.0018C44.5583 16.5677 43.9311 17.126 43.2968 17.6777C42.4866 18.3876 41.6888 19.1119 40.8933 19.8382C40.195 20.4734 39.4885 21.0893 38.7535 21.6819C37.8999 22.3725 37.0938 23.1042 36.2892 23.8502C35.9233 24.1877 35.5542 24.5181 35.1775 24.8433C34.4839 25.4443 33.8133 26.0694 33.1409 26.6937C32.6557 27.1433 32.1668 27.5855 31.6637 28.0151C31.0346 28.5579 30.455 29.1471 29.8714 29.7376C29.3355 30.2774 28.7842 30.7874 28.2062 31.2814C27.8119 31.6202 27.4264 31.968 27.0408 32.3166C26.113 33.1534 25.1763 33.9779 24.2214 34.7836C24.0572 34.9272 23.893 35.0709 23.7239 35.2189C23.7239 35.2736 23.7239 35.3284 23.7239 35.3847C23.9113 35.3863 24.0987 35.3878 24.2919 35.3894C24.988 35.3961 25.684 35.407 26.38 35.4192C26.6811 35.4238 26.9822 35.4274 27.2834 35.4297C27.7166 35.4332 28.1495 35.441 28.5826 35.4495C28.717 35.4497 28.8515 35.4499 28.99 35.4501C29.5463 35.4646 29.934 35.4846 30.3931 35.8141C30.7972 36.3596 30.7735 36.7197 30.7754 37.3955C30.7767 37.5143 30.7779 37.6331 30.7792 37.7555C30.7826 38.1549 30.7812 38.5541 30.7799 38.9534C30.7813 39.2441 30.7831 39.5348 30.7851 39.8254C30.7897 40.6044 30.7903 41.3833 30.7901 42.1622C30.7906 42.8929 30.7946 43.6236 30.7983 44.3543C30.807 46.4918 30.81 48.6292 30.8137 50.7667C30.8274 55.5418 30.8411 60.3168 30.8552 65.2366C41.7462 65.2366 52.6372 65.2366 63.8582 65.2366C63.8865 56.4246 63.8371 59.5787 63.8582 50.7667C63.8658 49.0643 63.9152 45.9102 63.9195 45.1138C63.9224 44.5563 63.9233 43.9989 63.9232 43.4414C63.923 42.7307 63.9261 42.0201 63.9314 41.3095C63.9328 41.0484 63.9331 40.7873 63.9322 40.5262C63.9311 40.1739 63.934 39.8219 63.938 39.4697C63.9389 39.1734 63.9389 39.1734 63.9399 38.8711C64.0417 38.2653 64.1978 38.0681 64.6875 37.7065C65.1472 37.6411 65.5411 37.6157 66.0006 37.6207C66.1323 37.6195 66.264 37.6184 66.3996 37.6172C66.8344 37.6143 67.269 37.6162 67.7038 37.6184C68.0061 37.618 68.3085 37.6174 68.6108 37.6165C69.2444 37.6155 69.8778 37.617 70.5113 37.6201C71.3233 37.6238 72.1352 37.6217 72.9472 37.6177C73.5715 37.6153 74.1958 37.6161 74.8201 37.6178C75.1195 37.6182 75.4189 37.6177 75.7183 37.6161C76.1368 37.6144 76.5551 37.617 76.9736 37.6207C77.0973 37.6194 77.221 37.618 77.3485 37.6166C77.8813 37.6254 78.216 37.6542 78.65 37.9752C79.0463 38.4965 79.0341 38.8118 79.0362 39.4634C79.038 39.6278 79.038 39.6278 79.0399 39.7955C79.0433 40.1625 79.042 40.5293 79.0406 40.8963C79.0421 41.1594 79.0438 41.4226 79.0458 41.6858C79.0504 42.4001 79.051 43.1145 79.0508 43.8288C79.0514 44.5754 79.0556 45.322 79.0595 46.0686C79.0662 47.4823 79.0696 48.896 79.0717 50.3098C79.0744 51.9193 79.0807 53.5287 79.0874 55.1382C79.1011 58.4491 79.1096 61.7599 79.1159 65.0707C81.7429 65.0707 84.3699 65.0707 87.0765 65.0707C87.0789 64.1941 87.0813 63.3176 87.0838 62.4144C87.0921 59.5244 87.1031 56.6343 87.1156 53.7443C87.123 51.9913 87.1296 50.2384 87.1339 48.4854C87.1377 46.9579 87.1433 45.4305 87.1509 43.903C87.1549 43.0938 87.158 42.2847 87.159 41.4756C87.16 40.7145 87.1633 39.9535 87.1684 39.1924C87.1699 38.9126 87.1705 38.6329 87.1702 38.3531C87.1699 37.9719 87.1727 37.5909 87.1762 37.2098C87.1769 36.9962 87.1777 36.7826 87.1785 36.5626C87.2423 36.0481 87.2423 36.0481 87.4753 35.7309C87.8099 35.5028 88.017 35.4851 88.4205 35.4789C88.5566 35.4756 88.6927 35.4723 88.8329 35.4689C89.0522 35.4673 89.0522 35.4673 89.2759 35.4657C89.4261 35.4627 89.5763 35.4598 89.7311 35.4567C90.211 35.4477 90.6908 35.4421 91.1708 35.4366C91.4961 35.4311 91.8214 35.4253 92.1467 35.4194C92.9443 35.4053 93.7418 35.3942 94.5395 35.3847C93.9076 34.7503 93.2666 34.1293 92.6115 33.519C92.5097 33.4241 92.4079 33.3292 92.303 33.2315C91.5599 32.5448 90.7888 31.9043 89.9975 31.2736C89.3691 30.7419 88.8037 30.1549 88.2367 29.5588C87.941 29.2107 87.941 29.2107 87.574 29.2485C87.531 29.1498 87.4881 29.051 87.4438 28.9492C87.2261 28.5558 87.0171 28.3523 86.6722 28.0669C86.1051 27.5872 85.5514 27.0966 85.0034 26.595C84.3787 26.0252 83.7485 25.4635 83.1098 24.9094C82.6956 24.5442 82.29 24.1702 81.8835 23.7964C81.2897 23.2541 80.6866 22.7342 80.0592 22.2313C79.1064 21.4628 78.2194 20.6324 77.3273 19.7955C76.831 19.3302 76.3232 18.8806 75.8081 18.4363C75.3564 18.0395 74.9145 17.6322 74.4723 17.2249C73.925 16.7209 73.3761 16.2196 72.8138 15.7323C71.4511 14.5494 70.1381 13.3084 68.8131 12.0836C68.3595 11.6645 67.9051 11.2462 67.4492 10.8295C67.3596 10.7477 67.27 10.6658 67.1777 10.5814C66.9315 10.3565 66.685 10.1318 66.4385 9.90703C66.1675 9.65542 65.9027 9.39674 65.6469 9.12964C65.3786 8.81181 65.3786 8.81181 65.0192 8.84978C65.0192 8.74032 65.0192 8.63087 65.0192 8.51809C64.7904 8.28016 64.7904 8.28016 64.4802 8.03093C63.8732 7.51546 63.2822 6.98527 62.6973 6.44505C61.9335 5.74197 61.1621 5.04951 60.3755 4.37201C60.2817 4.28799 60.1878 4.20397 60.0911 4.11741C59.0966 3.24445 58.7286 3.62214 57.8775 4.44456Z" stroke="#F9FAFB" stroke-width="2" mask="url(#path-1-outside-1_507_3903)"/>
<mask id="path-2-outside-2_507_3903" maskUnits="userSpaceOnUse" x="0.317871" y="48.1152" width="57" height="74" fill="black">
<rect fill="white" x="0.317871" y="48.1152" width="57" height="74"/>
<path d="M8.6319 49.9782C11.3701 51.9401 12.2675 55.229 13.1112 58.3283C14.7719 64.709 14.7719 64.709 17.4217 70.7086C17.8559 70.9257 18.1497 70.8671 18.6344 70.8433C21.6029 70.8363 24.0774 72.7125 26.4834 74.2472C27.8571 75.123 29.2512 75.9623 30.6537 76.7911C30.974 76.9826 31.2904 77.1787 31.6059 77.378C33.7246 78.6749 36.1017 79.4207 38.445 80.2096C42.3521 81.5259 45.5296 83.1811 48.6004 85.9662C48.7494 86.1011 48.8984 86.236 49.052 86.375C52.633 89.7857 54.829 94.5485 55.5244 99.3995C55.5456 99.545 55.5669 99.6906 55.5887 99.8405C55.8854 102.111 55.7151 104.416 55.6073 106.697C55.6005 106.844 55.5937 106.991 55.5866 107.143C55.4124 110.817 55.098 114.48 54.7367 118.14C54.7237 118.277 54.7107 118.413 54.6974 118.554C54.684 118.687 54.6705 118.82 54.6567 118.958C54.6391 119.137 54.6391 119.137 54.6211 119.32C54.5481 119.774 54.435 120.009 54.0733 120.296C53.5758 120.368 53.5758 120.368 53.0782 120.296C52.7999 120.087 52.7999 120.087 52.5807 119.798C52.5342 119.468 52.5342 119.468 52.5567 119.088C52.5641 118.945 52.5714 118.802 52.579 118.655C52.5898 118.5 52.6006 118.345 52.6118 118.185C52.6212 118.023 52.6306 117.861 52.6403 117.694C52.7409 116.051 52.8839 114.41 53.0332 112.77C53.3959 108.786 53.3959 108.786 53.568 104.79C53.5733 104.505 53.5803 104.22 53.5887 103.935C53.7472 98.4673 52.4043 93.4834 48.7663 89.2831C48.6573 89.1553 48.6573 89.1553 48.5461 89.025C45.3875 85.3432 41.2617 83.4107 36.7425 81.903C34.1149 81.0264 31.5977 80.0253 29.2381 78.5551C29.0339 78.4304 29.0339 78.4304 28.8255 78.3031C28.3954 78.0398 27.9666 77.7743 27.5382 77.5082C27.243 77.3253 26.9478 77.1424 26.6526 76.9595C26.5059 76.8685 26.3593 76.7776 26.2082 76.6839C24.3701 75.5428 24.3701 75.5428 22.5214 74.4193C22.4128 74.3527 22.3043 74.2861 22.1925 74.2175C20.7206 73.3422 19.3041 72.9992 17.5875 73.1962C16.7713 73.5399 16.3951 74.0295 16.0437 74.819C15.7922 75.6249 15.8055 76.3383 16.0923 77.1292C16.5755 77.9167 17.2081 78.514 17.8674 79.1562C17.9964 79.2844 18.1254 79.4126 18.2583 79.5446C19.0592 80.3348 19.8821 81.0908 20.7385 81.8201C20.898 81.9561 21.0575 82.092 21.2218 82.2321C24.1034 84.6403 27.0977 86.9196 30.1295 89.1347C31.3218 90.0858 31.3218 90.0858 31.4355 90.7964C31.3526 91.2732 31.3526 91.2732 31.166 91.5841C30.6866 91.8718 30.4171 91.8456 29.86 91.7707C29.3595 91.4792 28.926 91.1143 28.4814 90.7446C28.2159 90.5306 27.9503 90.3168 27.6846 90.1032C27.5502 89.994 27.4157 89.8848 27.2773 89.7723C26.6586 89.2752 26.0256 88.7977 25.3926 88.3191C24.3194 87.502 23.2694 86.6615 22.2311 85.8004C21.9237 85.5516 21.6161 85.3028 21.3086 85.0541C20.5736 84.4535 19.8684 83.8269 19.1676 83.187C18.738 82.806 18.2956 82.4475 17.8466 82.0896C16.0898 80.6588 14.1843 79.0231 13.7731 76.679C13.6348 75.2836 13.7956 73.9809 14.7079 72.8639C14.8837 72.6742 15.0651 72.4893 15.2534 72.312C15.4739 72.0352 15.4739 72.0352 15.3798 71.6497C15.2703 71.2242 15.1312 70.8627 14.945 70.4657C12.9845 66.1818 11.6984 61.6925 10.4536 57.1595C10.3686 56.8545 10.3686 56.8545 10.2819 56.5432C10.2312 56.3594 10.1805 56.1757 10.1282 55.9863C9.60812 54.3441 8.77235 52.8332 7.35697 51.8128C6.60834 51.4688 5.9777 51.4136 5.14916 51.4707C4.60653 51.696 4.23719 51.8852 3.82241 52.3C3.38593 53.6064 3.69553 55.0727 3.94809 56.3864C3.9785 56.551 4.00892 56.7155 4.04026 56.885C4.1389 57.4162 4.2397 57.9469 4.34067 58.4776C4.40995 58.8471 4.47915 59.2167 4.54826 59.5862C4.74611 60.6407 4.94701 61.6945 5.14916 62.7481C5.18742 62.9479 5.18742 62.9479 5.22645 63.1517C5.89144 66.6195 6.63151 70.0722 7.39573 73.5194C7.46529 73.8339 7.53421 74.1485 7.60306 74.4632C9.35255 82.4042 12.3381 87.8225 18.8061 92.7225C19.2848 93.0879 19.7576 93.4607 20.2306 93.8334C20.3279 93.9099 20.4252 93.9864 20.5254 94.0652C20.9982 94.4373 21.4705 94.8101 21.9422 95.1835C22.9594 95.9872 23.9843 96.7792 25.0184 97.5611C27.2288 99.2337 29.3293 100.988 31.3526 102.882C31.4595 102.978 31.5664 103.074 31.6765 103.173C33.6521 105.015 35.2349 107.595 35.3538 110.33C35.3627 111.598 35.2589 112.805 35.053 114.056C35.0237 114.239 34.9945 114.422 34.9643 114.611C34.7518 115.904 34.5067 117.19 34.2341 118.472C34.1829 118.715 34.1829 118.715 34.1307 118.963C34.0977 119.112 34.0647 119.261 34.0307 119.415C34.0019 119.545 33.9732 119.676 33.9435 119.811C33.8403 120.13 33.8403 120.13 33.5086 120.462C33.011 120.503 33.011 120.503 32.5135 120.462C32.1818 120.13 32.1818 120.13 32.1497 119.596C32.1796 119.012 32.2518 118.473 32.3632 117.9C32.776 115.66 33.0949 113.478 33.1043 111.195C33.1067 110.998 33.109 110.802 33.1115 110.599C33.098 109.427 32.9284 108.547 32.3477 107.526C32.2737 107.391 32.1997 107.256 32.1235 107.118C31.1751 105.692 30.0139 104.433 28.7036 103.333C28.3353 103.021 27.9849 102.693 27.6315 102.364C26.1429 101.021 24.5014 99.8566 22.8975 98.6573C22.7905 98.5773 22.6835 98.4973 22.5732 98.4148C22.4654 98.3343 22.3577 98.2537 22.2467 98.1707C20.2403 96.667 18.2709 95.1146 16.3178 93.5425C15.974 93.2658 15.6286 92.992 15.2812 92.7198C14.5538 92.1491 13.8715 91.5713 13.2367 90.8981C12.9246 90.5813 12.9246 90.5813 12.4677 90.2263C4.73641 83.8442 3.90943 68.4424 2.26761 59.2343C2.2385 59.0711 2.20938 58.9079 2.17938 58.7397C2.09645 58.2735 2.01411 57.8071 1.93204 57.3407C1.89533 57.1338 1.89533 57.1338 1.85787 56.9227C1.09327 52.5457 1.09327 52.5457 2.16396 50.8074C3.91483 48.7544 6.36927 48.6852 8.6319 49.9782Z"/>
</mask>
<path d="M8.6319 49.9782C11.3701 51.9401 12.2675 55.229 13.1112 58.3283C14.7719 64.709 14.7719 64.709 17.4217 70.7086C17.8559 70.9257 18.1497 70.8671 18.6344 70.8433C21.6029 70.8363 24.0774 72.7125 26.4834 74.2472C27.8571 75.123 29.2512 75.9623 30.6537 76.7911C30.974 76.9826 31.2904 77.1787 31.6059 77.378C33.7246 78.6749 36.1017 79.4207 38.445 80.2096C42.3521 81.5259 45.5296 83.1811 48.6004 85.9662C48.7494 86.1011 48.8984 86.236 49.052 86.375C52.633 89.7857 54.829 94.5485 55.5244 99.3995C55.5456 99.545 55.5669 99.6906 55.5887 99.8405C55.8854 102.111 55.7151 104.416 55.6073 106.697C55.6005 106.844 55.5937 106.991 55.5866 107.143C55.4124 110.817 55.098 114.48 54.7367 118.14C54.7237 118.277 54.7107 118.413 54.6974 118.554C54.684 118.687 54.6705 118.82 54.6567 118.958C54.6391 119.137 54.6391 119.137 54.6211 119.32C54.5481 119.774 54.435 120.009 54.0733 120.296C53.5758 120.368 53.5758 120.368 53.0782 120.296C52.7999 120.087 52.7999 120.087 52.5807 119.798C52.5342 119.468 52.5342 119.468 52.5567 119.088C52.5641 118.945 52.5714 118.802 52.579 118.655C52.5898 118.5 52.6006 118.345 52.6118 118.185C52.6212 118.023 52.6306 117.861 52.6403 117.694C52.7409 116.051 52.8839 114.41 53.0332 112.77C53.3959 108.786 53.3959 108.786 53.568 104.79C53.5733 104.505 53.5803 104.22 53.5887 103.935C53.7472 98.4673 52.4043 93.4834 48.7663 89.2831C48.6573 89.1553 48.6573 89.1553 48.5461 89.025C45.3875 85.3432 41.2617 83.4107 36.7425 81.903C34.1149 81.0264 31.5977 80.0253 29.2381 78.5551C29.0339 78.4304 29.0339 78.4304 28.8255 78.3031C28.3954 78.0398 27.9666 77.7743 27.5382 77.5082C27.243 77.3253 26.9478 77.1424 26.6526 76.9595C26.5059 76.8685 26.3593 76.7776 26.2082 76.6839C24.3701 75.5428 24.3701 75.5428 22.5214 74.4193C22.4128 74.3527 22.3043 74.2861 22.1925 74.2175C20.7206 73.3422 19.3041 72.9992 17.5875 73.1962C16.7713 73.5399 16.3951 74.0295 16.0437 74.819C15.7922 75.6249 15.8055 76.3383 16.0923 77.1292C16.5755 77.9167 17.2081 78.514 17.8674 79.1562C17.9964 79.2844 18.1254 79.4126 18.2583 79.5446C19.0592 80.3348 19.8821 81.0908 20.7385 81.8201C20.898 81.9561 21.0575 82.092 21.2218 82.2321C24.1034 84.6403 27.0977 86.9196 30.1295 89.1347C31.3218 90.0858 31.3218 90.0858 31.4355 90.7964C31.3526 91.2732 31.3526 91.2732 31.166 91.5841C30.6866 91.8718 30.4171 91.8456 29.86 91.7707C29.3595 91.4792 28.926 91.1143 28.4814 90.7446C28.2159 90.5306 27.9503 90.3168 27.6846 90.1032C27.5502 89.994 27.4157 89.8848 27.2773 89.7723C26.6586 89.2752 26.0256 88.7977 25.3926 88.3191C24.3194 87.502 23.2694 86.6615 22.2311 85.8004C21.9237 85.5516 21.6161 85.3028 21.3086 85.0541C20.5736 84.4535 19.8684 83.8269 19.1676 83.187C18.738 82.806 18.2956 82.4475 17.8466 82.0896C16.0898 80.6588 14.1843 79.0231 13.7731 76.679C13.6348 75.2836 13.7956 73.9809 14.7079 72.8639C14.8837 72.6742 15.0651 72.4893 15.2534 72.312C15.4739 72.0352 15.4739 72.0352 15.3798 71.6497C15.2703 71.2242 15.1312 70.8627 14.945 70.4657C12.9845 66.1818 11.6984 61.6925 10.4536 57.1595C10.3686 56.8545 10.3686 56.8545 10.2819 56.5432C10.2312 56.3594 10.1805 56.1757 10.1282 55.9863C9.60812 54.3441 8.77235 52.8332 7.35697 51.8128C6.60834 51.4688 5.9777 51.4136 5.14916 51.4707C4.60653 51.696 4.23719 51.8852 3.82241 52.3C3.38593 53.6064 3.69553 55.0727 3.94809 56.3864C3.9785 56.551 4.00892 56.7155 4.04026 56.885C4.1389 57.4162 4.2397 57.9469 4.34067 58.4776C4.40995 58.8471 4.47915 59.2167 4.54826 59.5862C4.74611 60.6407 4.94701 61.6945 5.14916 62.7481C5.18742 62.9479 5.18742 62.9479 5.22645 63.1517C5.89144 66.6195 6.63151 70.0722 7.39573 73.5194C7.46529 73.8339 7.53421 74.1485 7.60306 74.4632C9.35255 82.4042 12.3381 87.8225 18.8061 92.7225C19.2848 93.0879 19.7576 93.4607 20.2306 93.8334C20.3279 93.9099 20.4252 93.9864 20.5254 94.0652C20.9982 94.4373 21.4705 94.8101 21.9422 95.1835C22.9594 95.9872 23.9843 96.7792 25.0184 97.5611C27.2288 99.2337 29.3293 100.988 31.3526 102.882C31.4595 102.978 31.5664 103.074 31.6765 103.173C33.6521 105.015 35.2349 107.595 35.3538 110.33C35.3627 111.598 35.2589 112.805 35.053 114.056C35.0237 114.239 34.9945 114.422 34.9643 114.611C34.7518 115.904 34.5067 117.19 34.2341 118.472C34.1829 118.715 34.1829 118.715 34.1307 118.963C34.0977 119.112 34.0647 119.261 34.0307 119.415C34.0019 119.545 33.9732 119.676 33.9435 119.811C33.8403 120.13 33.8403 120.13 33.5086 120.462C33.011 120.503 33.011 120.503 32.5135 120.462C32.1818 120.13 32.1818 120.13 32.1497 119.596C32.1796 119.012 32.2518 118.473 32.3632 117.9C32.776 115.66 33.0949 113.478 33.1043 111.195C33.1067 110.998 33.109 110.802 33.1115 110.599C33.098 109.427 32.9284 108.547 32.3477 107.526C32.2737 107.391 32.1997 107.256 32.1235 107.118C31.1751 105.692 30.0139 104.433 28.7036 103.333C28.3353 103.021 27.9849 102.693 27.6315 102.364C26.1429 101.021 24.5014 99.8566 22.8975 98.6573C22.7905 98.5773 22.6835 98.4973 22.5732 98.4148C22.4654 98.3343 22.3577 98.2537 22.2467 98.1707C20.2403 96.667 18.2709 95.1146 16.3178 93.5425C15.974 93.2658 15.6286 92.992 15.2812 92.7198C14.5538 92.1491 13.8715 91.5713 13.2367 90.8981C12.9246 90.5813 12.9246 90.5813 12.4677 90.2263C4.73641 83.8442 3.90943 68.4424 2.26761 59.2343C2.2385 59.0711 2.20938 58.9079 2.17938 58.7397C2.09645 58.2735 2.01411 57.8071 1.93204 57.3407C1.89533 57.1338 1.89533 57.1338 1.85787 56.9227C1.09327 52.5457 1.09327 52.5457 2.16396 50.8074C3.91483 48.7544 6.36927 48.6852 8.6319 49.9782Z" fill="#F9FAFB"/>
<path d="M8.6319 49.9782C11.3701 51.9401 12.2675 55.229 13.1112 58.3283C14.7719 64.709 14.7719 64.709 17.4217 70.7086C17.8559 70.9257 18.1497 70.8671 18.6344 70.8433C21.6029 70.8363 24.0774 72.7125 26.4834 74.2472C27.8571 75.123 29.2512 75.9623 30.6537 76.7911C30.974 76.9826 31.2904 77.1787 31.6059 77.378C33.7246 78.6749 36.1017 79.4207 38.445 80.2096C42.3521 81.5259 45.5296 83.1811 48.6004 85.9662C48.7494 86.1011 48.8984 86.236 49.052 86.375C52.633 89.7857 54.829 94.5485 55.5244 99.3995C55.5456 99.545 55.5669 99.6906 55.5887 99.8405C55.8854 102.111 55.7151 104.416 55.6073 106.697C55.6005 106.844 55.5937 106.991 55.5866 107.143C55.4124 110.817 55.098 114.48 54.7367 118.14C54.7237 118.277 54.7107 118.413 54.6974 118.554C54.684 118.687 54.6705 118.82 54.6567 118.958C54.6391 119.137 54.6391 119.137 54.6211 119.32C54.5481 119.774 54.435 120.009 54.0733 120.296C53.5758 120.368 53.5758 120.368 53.0782 120.296C52.7999 120.087 52.7999 120.087 52.5807 119.798C52.5342 119.468 52.5342 119.468 52.5567 119.088C52.5641 118.945 52.5714 118.802 52.579 118.655C52.5898 118.5 52.6006 118.345 52.6118 118.185C52.6212 118.023 52.6306 117.861 52.6403 117.694C52.7409 116.051 52.8839 114.41 53.0332 112.77C53.3959 108.786 53.3959 108.786 53.568 104.79C53.5733 104.505 53.5803 104.22 53.5887 103.935C53.7472 98.4673 52.4043 93.4834 48.7663 89.2831C48.6573 89.1553 48.6573 89.1553 48.5461 89.025C45.3875 85.3432 41.2617 83.4107 36.7425 81.903C34.1149 81.0264 31.5977 80.0253 29.2381 78.5551C29.0339 78.4304 29.0339 78.4304 28.8255 78.3031C28.3954 78.0398 27.9666 77.7743 27.5382 77.5082C27.243 77.3253 26.9478 77.1424 26.6526 76.9595C26.5059 76.8685 26.3593 76.7776 26.2082 76.6839C24.3701 75.5428 24.3701 75.5428 22.5214 74.4193C22.4128 74.3527 22.3043 74.2861 22.1925 74.2175C20.7206 73.3422 19.3041 72.9992 17.5875 73.1962C16.7713 73.5399 16.3951 74.0295 16.0437 74.819C15.7922 75.6249 15.8055 76.3383 16.0923 77.1292C16.5755 77.9167 17.2081 78.514 17.8674 79.1562C17.9964 79.2844 18.1254 79.4126 18.2583 79.5446C19.0592 80.3348 19.8821 81.0908 20.7385 81.8201C20.898 81.9561 21.0575 82.092 21.2218 82.2321C24.1034 84.6403 27.0977 86.9196 30.1295 89.1347C31.3218 90.0858 31.3218 90.0858 31.4355 90.7964C31.3526 91.2732 31.3526 91.2732 31.166 91.5841C30.6866 91.8718 30.4171 91.8456 29.86 91.7707C29.3595 91.4792 28.926 91.1143 28.4814 90.7446C28.2159 90.5306 27.9503 90.3168 27.6846 90.1032C27.5502 89.994 27.4157 89.8848 27.2773 89.7723C26.6586 89.2752 26.0256 88.7977 25.3926 88.3191C24.3194 87.502 23.2694 86.6615 22.2311 85.8004C21.9237 85.5516 21.6161 85.3028 21.3086 85.0541C20.5736 84.4535 19.8684 83.8269 19.1676 83.187C18.738 82.806 18.2956 82.4475 17.8466 82.0896C16.0898 80.6588 14.1843 79.0231 13.7731 76.679C13.6348 75.2836 13.7956 73.9809 14.7079 72.8639C14.8837 72.6742 15.0651 72.4893 15.2534 72.312C15.4739 72.0352 15.4739 72.0352 15.3798 71.6497C15.2703 71.2242 15.1312 70.8627 14.945 70.4657C12.9845 66.1818 11.6984 61.6925 10.4536 57.1595C10.3686 56.8545 10.3686 56.8545 10.2819 56.5432C10.2312 56.3594 10.1805 56.1757 10.1282 55.9863C9.60812 54.3441 8.77235 52.8332 7.35697 51.8128C6.60834 51.4688 5.9777 51.4136 5.14916 51.4707C4.60653 51.696 4.23719 51.8852 3.82241 52.3C3.38593 53.6064 3.69553 55.0727 3.94809 56.3864C3.9785 56.551 4.00892 56.7155 4.04026 56.885C4.1389 57.4162 4.2397 57.9469 4.34067 58.4776C4.40995 58.8471 4.47915 59.2167 4.54826 59.5862C4.74611 60.6407 4.94701 61.6945 5.14916 62.7481C5.18742 62.9479 5.18742 62.9479 5.22645 63.1517C5.89144 66.6195 6.63151 70.0722 7.39573 73.5194C7.46529 73.8339 7.53421 74.1485 7.60306 74.4632C9.35255 82.4042 12.3381 87.8225 18.8061 92.7225C19.2848 93.0879 19.7576 93.4607 20.2306 93.8334C20.3279 93.9099 20.4252 93.9864 20.5254 94.0652C20.9982 94.4373 21.4705 94.8101 21.9422 95.1835C22.9594 95.9872 23.9843 96.7792 25.0184 97.5611C27.2288 99.2337 29.3293 100.988 31.3526 102.882C31.4595 102.978 31.5664 103.074 31.6765 103.173C33.6521 105.015 35.2349 107.595 35.3538 110.33C35.3627 111.598 35.2589 112.805 35.053 114.056C35.0237 114.239 34.9945 114.422 34.9643 114.611C34.7518 115.904 34.5067 117.19 34.2341 118.472C34.1829 118.715 34.1829 118.715 34.1307 118.963C34.0977 119.112 34.0647 119.261 34.0307 119.415C34.0019 119.545 33.9732 119.676 33.9435 119.811C33.8403 120.13 33.8403 120.13 33.5086 120.462C33.011 120.503 33.011 120.503 32.5135 120.462C32.1818 120.13 32.1818 120.13 32.1497 119.596C32.1796 119.012 32.2518 118.473 32.3632 117.9C32.776 115.66 33.0949 113.478 33.1043 111.195C33.1067 110.998 33.109 110.802 33.1115 110.599C33.098 109.427 32.9284 108.547 32.3477 107.526C32.2737 107.391 32.1997 107.256 32.1235 107.118C31.1751 105.692 30.0139 104.433 28.7036 103.333C28.3353 103.021 27.9849 102.693 27.6315 102.364C26.1429 101.021 24.5014 99.8566 22.8975 98.6573C22.7905 98.5773 22.6835 98.4973 22.5732 98.4148C22.4654 98.3343 22.3577 98.2537 22.2467 98.1707C20.2403 96.667 18.2709 95.1146 16.3178 93.5425C15.974 93.2658 15.6286 92.992 15.2812 92.7198C14.5538 92.1491 13.8715 91.5713 13.2367 90.8981C12.9246 90.5813 12.9246 90.5813 12.4677 90.2263C4.73641 83.8442 3.90943 68.4424 2.26761 59.2343C2.2385 59.0711 2.20938 58.9079 2.17938 58.7397C2.09645 58.2735 2.01411 57.8071 1.93204 57.3407C1.89533 57.1338 1.89533 57.1338 1.85787 56.9227C1.09327 52.5457 1.09327 52.5457 2.16396 50.8074C3.91483 48.7544 6.36927 48.6852 8.6319 49.9782Z" stroke="#F9FAFB" stroke-width="2" mask="url(#path-2-outside-2_507_3903)"/>
<mask id="path-3-outside-3_507_3903" maskUnits="userSpaceOnUse" x="61.2356" y="48.207" width="57" height="74" fill="black">
<rect fill="white" x="61.2356" y="48.207" width="57" height="74"/>
<path d="M114.45 49.5649C115.35 50.0507 116.068 50.8049 116.441 51.7575C117.014 53.7696 116.434 56.0208 116.057 58.0229C116.003 58.3203 115.948 58.6178 115.894 58.9153C115.789 59.4954 115.683 60.0753 115.575 60.6551C115.434 61.4252 115.303 62.1969 115.175 62.9695C114.764 65.4447 114.228 67.8953 113.691 70.3454C113.611 70.7099 113.532 71.0745 113.453 71.4392C111.435 80.7204 111.435 80.7204 109.465 84.8066C109.372 85.0024 109.278 85.1982 109.182 85.4C107.742 88.24 105.5 90.667 102.997 92.6012C102.814 92.7455 102.63 92.89 102.447 93.0346C101.956 93.4227 101.464 93.8087 100.97 94.1943C100.592 94.4905 100.215 94.7878 99.837 95.085C97.7867 96.6988 95.7333 98.3073 93.6389 99.8636C92.8235 100.472 92.037 101.107 91.2608 101.765C90.9254 102.027 90.6139 102.214 90.2268 102.386C90.2268 102.495 90.2268 102.605 90.2268 102.718C89.9832 102.963 89.9832 102.963 89.6464 103.246C89.5247 103.35 89.4031 103.455 89.2778 103.562C89.0427 103.759 88.8067 103.955 88.569 104.149C86.7791 105.643 85.1645 107.576 84.9094 109.963C84.8338 112.507 85.3168 115.101 85.7631 117.598C85.906 118.429 86.0239 119.289 85.9149 120.131C85.5832 120.463 85.5832 120.463 85.096 120.536C84.5881 120.463 84.5881 120.463 84.3235 120.119C84.0525 119.555 83.9439 119.048 83.836 118.431C83.8154 118.316 83.7948 118.201 83.7736 118.082C83.7084 117.715 83.6455 117.348 83.5827 116.98C83.54 116.739 83.4971 116.497 83.4541 116.255C82.1488 108.877 82.1488 108.877 84.4223 105.537C84.9488 104.903 85.5117 104.309 86.0807 103.713C86.2825 103.479 86.483 103.244 86.6819 103.008C87.1408 102.482 87.6267 102.023 88.1589 101.572C88.4806 101.3 88.7973 101.023 89.1126 100.743C90.483 99.5304 91.8986 98.408 93.3737 97.3258C95.8744 95.4879 98.3142 93.5797 100.716 91.6153C101.087 91.3122 101.46 91.0128 101.836 90.7161C107.314 86.3689 109.169 80.6949 110.626 74.0268C110.694 73.7206 110.762 73.4145 110.831 73.1084C111.431 70.4201 111.997 67.7262 112.527 65.023C112.607 64.6195 112.689 64.2165 112.773 63.8138C113.154 61.9809 113.49 60.1395 113.82 58.2968C113.874 57.9998 113.927 57.7029 113.982 57.4061C114.561 54.8407 114.561 54.8407 114.254 52.3013C113.676 51.6857 113.145 51.4979 112.315 51.3891C111.174 51.4414 110.271 52.0962 109.506 52.9025C108.449 54.2329 107.98 55.8534 107.535 57.4683C107.425 57.8553 107.316 58.2423 107.206 58.6292C107.122 58.9281 107.122 58.9281 107.036 59.233C104.712 67.4839 104.712 67.4839 102.845 71.0876C102.638 71.5136 102.638 71.5136 102.689 71.8954C102.854 72.252 103.055 72.5137 103.308 72.814C104.109 73.8557 104.428 74.9346 104.381 76.2482C104.135 78.097 103.155 79.6574 101.735 80.8257C101.236 81.2435 100.766 81.6877 100.292 82.1324C99.4996 82.8692 98.6868 83.5666 97.8427 84.2436C97.3822 84.6211 96.9346 85.0095 96.488 85.403C95.1685 86.5647 93.7954 87.6362 92.3919 88.6938C91.855 89.1017 91.326 89.5195 90.7969 89.9374C90.7012 90.0122 90.6055 90.087 90.5069 90.1641C90.1111 90.4735 89.7196 90.7852 89.3373 91.1112C88.7861 91.5694 88.4065 91.8314 87.677 91.8653C87.4786 91.8345 87.2802 91.8037 87.0758 91.772C86.7441 91.2745 86.7441 91.2745 86.7234 90.8184C87.0066 90.0001 87.5632 89.6376 88.2367 89.1185C88.3893 88.9995 88.542 88.8804 88.6992 88.7577C89.0544 88.483 89.4103 88.2095 89.7675 87.9375C90.9787 87.0145 92.1778 86.0756 93.3779 85.1383C93.5335 85.0171 93.6891 84.8959 93.8495 84.771C95.6616 83.3424 97.3827 81.801 99.0749 80.2336C99.4534 79.8869 99.8381 79.5518 100.229 79.2197C101.565 78.0846 101.565 78.0846 102.207 76.5235C102.241 75.5415 102.085 74.6736 101.504 73.8609C100.605 73.1285 99.8307 73.0353 98.7056 73.0933C96.5759 73.3343 94.5997 74.987 92.8672 76.1383C92.0564 76.6735 91.2259 77.1761 90.3927 77.6753C90.2465 77.7633 90.1003 77.8513 89.9497 77.942C89.4385 78.2488 88.9258 78.5531 88.4129 78.857C88.2509 78.9542 88.089 79.0514 87.9221 79.1516C85.9661 80.3022 83.9067 81.0794 81.7584 81.7903C75.136 84.0203 69.7746 87.2142 66.5111 93.5963C64.0722 98.5949 64.594 104.137 64.9623 109.517C65.0648 111.021 65.159 112.525 65.2539 114.028C65.2873 114.555 65.3215 115.082 65.3559 115.609C65.3769 115.938 65.3979 116.267 65.4188 116.596C65.4286 116.744 65.4385 116.892 65.4486 117.045C65.4941 117.771 65.528 118.496 65.5428 119.222C65.5458 119.357 65.5487 119.492 65.5518 119.63C65.516 119.965 65.516 119.965 65.1843 120.297C64.6038 120.339 64.6038 120.339 64.0234 120.297C63.6268 119.901 63.6394 119.777 63.5988 119.233C63.5806 119.006 63.5806 119.006 63.562 118.775C63.5444 118.528 63.5444 118.528 63.5265 118.277C63.499 117.927 63.4714 117.577 63.4437 117.228C63.4299 117.048 63.4162 116.869 63.402 116.684C63.3378 115.868 63.2628 115.053 63.1883 114.238C63.1599 113.919 63.1315 113.601 63.1031 113.282C63.0606 112.804 63.0179 112.326 62.9744 111.847C61.9805 100.913 61.9805 100.913 63.0283 96.9132C63.0684 96.7545 63.0684 96.7545 63.1092 96.5926C64.6234 90.7265 68.5761 86.0084 73.6424 82.8165C73.7443 82.7517 73.8462 82.687 73.9512 82.6203C76.0818 81.3008 78.4767 80.5974 80.8385 79.8114C84.2549 78.6727 87.3382 77.0859 90.3927 75.1877C90.4988 75.1219 90.605 75.056 90.7143 74.9882C91.7251 74.3606 92.735 73.7318 93.7335 73.0848C95.5567 71.9108 97.3192 70.8482 99.5556 70.855C99.6967 70.8546 99.8378 70.8542 99.9831 70.8537C100.343 70.8757 100.343 70.8757 100.675 71.0416C100.715 70.9118 100.755 70.7821 100.796 70.6484C100.959 70.1834 101.134 69.7442 101.332 69.2944C103.058 65.3626 104.315 61.2525 105.446 57.1149C106.217 54.3028 107.148 51.3873 109.798 49.8149C111.166 49.1226 112.997 48.9974 114.45 49.5649Z"/>
</mask>
<path d="M114.45 49.5649C115.35 50.0507 116.068 50.8049 116.441 51.7575C117.014 53.7696 116.434 56.0208 116.057 58.0229C116.003 58.3203 115.948 58.6178 115.894 58.9153C115.789 59.4954 115.683 60.0753 115.575 60.6551C115.434 61.4252 115.303 62.1969 115.175 62.9695C114.764 65.4447 114.228 67.8953 113.691 70.3454C113.611 70.7099 113.532 71.0745 113.453 71.4392C111.435 80.7204 111.435 80.7204 109.465 84.8066C109.372 85.0024 109.278 85.1982 109.182 85.4C107.742 88.24 105.5 90.667 102.997 92.6012C102.814 92.7455 102.63 92.89 102.447 93.0346C101.956 93.4227 101.464 93.8087 100.97 94.1943C100.592 94.4905 100.215 94.7878 99.837 95.085C97.7867 96.6988 95.7333 98.3073 93.6389 99.8636C92.8235 100.472 92.037 101.107 91.2608 101.765C90.9254 102.027 90.6139 102.214 90.2268 102.386C90.2268 102.495 90.2268 102.605 90.2268 102.718C89.9832 102.963 89.9832 102.963 89.6464 103.246C89.5247 103.35 89.4031 103.455 89.2778 103.562C89.0427 103.759 88.8067 103.955 88.569 104.149C86.7791 105.643 85.1645 107.576 84.9094 109.963C84.8338 112.507 85.3168 115.101 85.7631 117.598C85.906 118.429 86.0239 119.289 85.9149 120.131C85.5832 120.463 85.5832 120.463 85.096 120.536C84.5881 120.463 84.5881 120.463 84.3235 120.119C84.0525 119.555 83.9439 119.048 83.836 118.431C83.8154 118.316 83.7948 118.201 83.7736 118.082C83.7084 117.715 83.6455 117.348 83.5827 116.98C83.54 116.739 83.4971 116.497 83.4541 116.255C82.1488 108.877 82.1488 108.877 84.4223 105.537C84.9488 104.903 85.5117 104.309 86.0807 103.713C86.2825 103.479 86.483 103.244 86.6819 103.008C87.1408 102.482 87.6267 102.023 88.1589 101.572C88.4806 101.3 88.7973 101.023 89.1126 100.743C90.483 99.5304 91.8986 98.408 93.3737 97.3258C95.8744 95.4879 98.3142 93.5797 100.716 91.6153C101.087 91.3122 101.46 91.0128 101.836 90.7161C107.314 86.3689 109.169 80.6949 110.626 74.0268C110.694 73.7206 110.762 73.4145 110.831 73.1084C111.431 70.4201 111.997 67.7262 112.527 65.023C112.607 64.6195 112.689 64.2165 112.773 63.8138C113.154 61.9809 113.49 60.1395 113.82 58.2968C113.874 57.9998 113.927 57.7029 113.982 57.4061C114.561 54.8407 114.561 54.8407 114.254 52.3013C113.676 51.6857 113.145 51.4979 112.315 51.3891C111.174 51.4414 110.271 52.0962 109.506 52.9025C108.449 54.2329 107.98 55.8534 107.535 57.4683C107.425 57.8553 107.316 58.2423 107.206 58.6292C107.122 58.9281 107.122 58.9281 107.036 59.233C104.712 67.4839 104.712 67.4839 102.845 71.0876C102.638 71.5136 102.638 71.5136 102.689 71.8954C102.854 72.252 103.055 72.5137 103.308 72.814C104.109 73.8557 104.428 74.9346 104.381 76.2482C104.135 78.097 103.155 79.6574 101.735 80.8257C101.236 81.2435 100.766 81.6877 100.292 82.1324C99.4996 82.8692 98.6868 83.5666 97.8427 84.2436C97.3822 84.6211 96.9346 85.0095 96.488 85.403C95.1685 86.5647 93.7954 87.6362 92.3919 88.6938C91.855 89.1017 91.326 89.5195 90.7969 89.9374C90.7012 90.0122 90.6055 90.087 90.5069 90.1641C90.1111 90.4735 89.7196 90.7852 89.3373 91.1112C88.7861 91.5694 88.4065 91.8314 87.677 91.8653C87.4786 91.8345 87.2802 91.8037 87.0758 91.772C86.7441 91.2745 86.7441 91.2745 86.7234 90.8184C87.0066 90.0001 87.5632 89.6376 88.2367 89.1185C88.3893 88.9995 88.542 88.8804 88.6992 88.7577C89.0544 88.483 89.4103 88.2095 89.7675 87.9375C90.9787 87.0145 92.1778 86.0756 93.3779 85.1383C93.5335 85.0171 93.6891 84.8959 93.8495 84.771C95.6616 83.3424 97.3827 81.801 99.0749 80.2336C99.4534 79.8869 99.8381 79.5518 100.229 79.2197C101.565 78.0846 101.565 78.0846 102.207 76.5235C102.241 75.5415 102.085 74.6736 101.504 73.8609C100.605 73.1285 99.8307 73.0353 98.7056 73.0933C96.5759 73.3343 94.5997 74.987 92.8672 76.1383C92.0564 76.6735 91.2259 77.1761 90.3927 77.6753C90.2465 77.7633 90.1003 77.8513 89.9497 77.942C89.4385 78.2488 88.9258 78.5531 88.4129 78.857C88.2509 78.9542 88.089 79.0514 87.9221 79.1516C85.9661 80.3022 83.9067 81.0794 81.7584 81.7903C75.136 84.0203 69.7746 87.2142 66.5111 93.5963C64.0722 98.5949 64.594 104.137 64.9623 109.517C65.0648 111.021 65.159 112.525 65.2539 114.028C65.2873 114.555 65.3215 115.082 65.3559 115.609C65.3769 115.938 65.3979 116.267 65.4188 116.596C65.4286 116.744 65.4385 116.892 65.4486 117.045C65.4941 117.771 65.528 118.496 65.5428 119.222C65.5458 119.357 65.5487 119.492 65.5518 119.63C65.516 119.965 65.516 119.965 65.1843 120.297C64.6038 120.339 64.6038 120.339 64.0234 120.297C63.6268 119.901 63.6394 119.777 63.5988 119.233C63.5806 119.006 63.5806 119.006 63.562 118.775C63.5444 118.528 63.5444 118.528 63.5265 118.277C63.499 117.927 63.4714 117.577 63.4437 117.228C63.4299 117.048 63.4162 116.869 63.402 116.684C63.3378 115.868 63.2628 115.053 63.1883 114.238C63.1599 113.919 63.1315 113.601 63.1031 113.282C63.0606 112.804 63.0179 112.326 62.9744 111.847C61.9805 100.913 61.9805 100.913 63.0283 96.9132C63.0684 96.7545 63.0684 96.7545 63.1092 96.5926C64.6234 90.7265 68.5761 86.0084 73.6424 82.8165C73.7443 82.7517 73.8462 82.687 73.9512 82.6203C76.0818 81.3008 78.4767 80.5974 80.8385 79.8114C84.2549 78.6727 87.3382 77.0859 90.3927 75.1877C90.4988 75.1219 90.605 75.056 90.7143 74.9882C91.7251 74.3606 92.735 73.7318 93.7335 73.0848C95.5567 71.9108 97.3192 70.8482 99.5556 70.855C99.6967 70.8546 99.8378 70.8542 99.9831 70.8537C100.343 70.8757 100.343 70.8757 100.675 71.0416C100.715 70.9118 100.755 70.7821 100.796 70.6484C100.959 70.1834 101.134 69.7442 101.332 69.2944C103.058 65.3626 104.315 61.2525 105.446 57.1149C106.217 54.3028 107.148 51.3873 109.798 49.8149C111.166 49.1226 112.997 48.9974 114.45 49.5649Z" fill="#F9FAFB"/>
<path d="M114.45 49.5649C115.35 50.0507 116.068 50.8049 116.441 51.7575C117.014 53.7696 116.434 56.0208 116.057 58.0229C116.003 58.3203 115.948 58.6178 115.894 58.9153C115.789 59.4954 115.683 60.0753 115.575 60.6551C115.434 61.4252 115.303 62.1969 115.175 62.9695C114.764 65.4447 114.228 67.8953 113.691 70.3454C113.611 70.7099 113.532 71.0745 113.453 71.4392C111.435 80.7204 111.435 80.7204 109.465 84.8066C109.372 85.0024 109.278 85.1982 109.182 85.4C107.742 88.24 105.5 90.667 102.997 92.6012C102.814 92.7455 102.63 92.89 102.447 93.0346C101.956 93.4227 101.464 93.8087 100.97 94.1943C100.592 94.4905 100.215 94.7878 99.837 95.085C97.7867 96.6988 95.7333 98.3073 93.6389 99.8636C92.8235 100.472 92.037 101.107 91.2608 101.765C90.9254 102.027 90.6139 102.214 90.2268 102.386C90.2268 102.495 90.2268 102.605 90.2268 102.718C89.9832 102.963 89.9832 102.963 89.6464 103.246C89.5247 103.35 89.4031 103.455 89.2778 103.562C89.0427 103.759 88.8067 103.955 88.569 104.149C86.7791 105.643 85.1645 107.576 84.9094 109.963C84.8338 112.507 85.3168 115.101 85.7631 117.598C85.906 118.429 86.0239 119.289 85.9149 120.131C85.5832 120.463 85.5832 120.463 85.096 120.536C84.5881 120.463 84.5881 120.463 84.3235 120.119C84.0525 119.555 83.9439 119.048 83.836 118.431C83.8154 118.316 83.7948 118.201 83.7736 118.082C83.7084 117.715 83.6455 117.348 83.5827 116.98C83.54 116.739 83.4971 116.497 83.4541 116.255C82.1488 108.877 82.1488 108.877 84.4223 105.537C84.9488 104.903 85.5117 104.309 86.0807 103.713C86.2825 103.479 86.483 103.244 86.6819 103.008C87.1408 102.482 87.6267 102.023 88.1589 101.572C88.4806 101.3 88.7973 101.023 89.1126 100.743C90.483 99.5304 91.8986 98.408 93.3737 97.3258C95.8744 95.4879 98.3142 93.5797 100.716 91.6153C101.087 91.3122 101.46 91.0128 101.836 90.7161C107.314 86.3689 109.169 80.6949 110.626 74.0268C110.694 73.7206 110.762 73.4145 110.831 73.1084C111.431 70.4201 111.997 67.7262 112.527 65.023C112.607 64.6195 112.689 64.2165 112.773 63.8138C113.154 61.9809 113.49 60.1395 113.82 58.2968C113.874 57.9998 113.927 57.7029 113.982 57.4061C114.561 54.8407 114.561 54.8407 114.254 52.3013C113.676 51.6857 113.145 51.4979 112.315 51.3891C111.174 51.4414 110.271 52.0962 109.506 52.9025C108.449 54.2329 107.98 55.8534 107.535 57.4683C107.425 57.8553 107.316 58.2423 107.206 58.6292C107.122 58.9281 107.122 58.9281 107.036 59.233C104.712 67.4839 104.712 67.4839 102.845 71.0876C102.638 71.5136 102.638 71.5136 102.689 71.8954C102.854 72.252 103.055 72.5137 103.308 72.814C104.109 73.8557 104.428 74.9346 104.381 76.2482C104.135 78.097 103.155 79.6574 101.735 80.8257C101.236 81.2435 100.766 81.6877 100.292 82.1324C99.4996 82.8692 98.6868 83.5666 97.8427 84.2436C97.3822 84.6211 96.9346 85.0095 96.488 85.403C95.1685 86.5647 93.7954 87.6362 92.3919 88.6938C91.855 89.1017 91.326 89.5195 90.7969 89.9374C90.7012 90.0122 90.6055 90.087 90.5069 90.1641C90.1111 90.4735 89.7196 90.7852 89.3373 91.1112C88.7861 91.5694 88.4065 91.8314 87.677 91.8653C87.4786 91.8345 87.2802 91.8037 87.0758 91.772C86.7441 91.2745 86.7441 91.2745 86.7234 90.8184C87.0066 90.0001 87.5632 89.6376 88.2367 89.1185C88.3893 88.9995 88.542 88.8804 88.6992 88.7577C89.0544 88.483 89.4103 88.2095 89.7675 87.9375C90.9787 87.0145 92.1778 86.0756 93.3779 85.1383C93.5335 85.0171 93.6891 84.8959 93.8495 84.771C95.6616 83.3424 97.3827 81.801 99.0749 80.2336C99.4534 79.8869 99.8381 79.5518 100.229 79.2197C101.565 78.0846 101.565 78.0846 102.207 76.5235C102.241 75.5415 102.085 74.6736 101.504 73.8609C100.605 73.1285 99.8307 73.0353 98.7056 73.0933C96.5759 73.3343 94.5997 74.987 92.8672 76.1383C92.0564 76.6735 91.2259 77.1761 90.3927 77.6753C90.2465 77.7633 90.1003 77.8513 89.9497 77.942C89.4385 78.2488 88.9258 78.5531 88.4129 78.857C88.2509 78.9542 88.089 79.0514 87.9221 79.1516C85.9661 80.3022 83.9067 81.0794 81.7584 81.7903C75.136 84.0203 69.7746 87.2142 66.5111 93.5963C64.0722 98.5949 64.594 104.137 64.9623 109.517C65.0648 111.021 65.159 112.525 65.2539 114.028C65.2873 114.555 65.3215 115.082 65.3559 115.609C65.3769 115.938 65.3979 116.267 65.4188 116.596C65.4286 116.744 65.4385 116.892 65.4486 117.045C65.4941 117.771 65.528 118.496 65.5428 119.222C65.5458 119.357 65.5487 119.492 65.5518 119.63C65.516 119.965 65.516 119.965 65.1843 120.297C64.6038 120.339 64.6038 120.339 64.0234 120.297C63.6268 119.901 63.6394 119.777 63.5988 119.233C63.5806 119.006 63.5806 119.006 63.562 118.775C63.5444 118.528 63.5444 118.528 63.5265 118.277C63.499 117.927 63.4714 117.577 63.4437 117.228C63.4299 117.048 63.4162 116.869 63.402 116.684C63.3378 115.868 63.2628 115.053 63.1883 114.238C63.1599 113.919 63.1315 113.601 63.1031 113.282C63.0606 112.804 63.0179 112.326 62.9744 111.847C61.9805 100.913 61.9805 100.913 63.0283 96.9132C63.0684 96.7545 63.0684 96.7545 63.1092 96.5926C64.6234 90.7265 68.5761 86.0084 73.6424 82.8165C73.7443 82.7517 73.8462 82.687 73.9512 82.6203C76.0818 81.3008 78.4767 80.5974 80.8385 79.8114C84.2549 78.6727 87.3382 77.0859 90.3927 75.1877C90.4988 75.1219 90.605 75.056 90.7143 74.9882C91.7251 74.3606 92.735 73.7318 93.7335 73.0848C95.5567 71.9108 97.3192 70.8482 99.5556 70.855C99.6967 70.8546 99.8378 70.8542 99.9831 70.8537C100.343 70.8757 100.343 70.8757 100.675 71.0416C100.715 70.9118 100.755 70.7821 100.796 70.6484C100.959 70.1834 101.134 69.7442 101.332 69.2944C103.058 65.3626 104.315 61.2525 105.446 57.1149C106.217 54.3028 107.148 51.3873 109.798 49.8149C111.166 49.1226 112.997 48.9974 114.45 49.5649Z" stroke="#F9FAFB" stroke-width="2" mask="url(#path-3-outside-3_507_3903)"/>
<path d="M41.2968 37.6781C41.4351 37.677 41.5734 37.6759 41.716 37.6748C42.1757 37.6715 42.6355 37.6696 43.0952 37.6679C43.2518 37.6672 43.4084 37.6666 43.5697 37.6659C44.3983 37.6624 45.2268 37.66 46.0554 37.6585C46.913 37.6566 47.7705 37.6509 48.6281 37.6443C49.2859 37.64 49.9438 37.6386 50.6017 37.638C50.9179 37.6372 51.2341 37.6353 51.5503 37.6322C51.9923 37.6282 52.4341 37.6283 52.8761 37.6295C53.0074 37.6274 53.1387 37.6252 53.274 37.623C53.8075 37.6281 54.1482 37.6323 54.568 37.9791C54.7821 38.4762 54.808 38.8675 54.8198 39.4094C54.8254 39.6214 54.831 39.8334 54.8368 40.0518C54.8405 40.2851 54.844 40.5183 54.8475 40.7516C54.8528 40.9959 54.8582 41.2402 54.8638 41.4845C54.8806 42.2708 54.8919 43.0572 54.9026 43.8436C54.9064 44.106 54.9103 44.3684 54.9142 44.6308C54.9366 46.2181 54.9476 47.8052 54.9515 49.3925C54.953 49.9378 54.9566 50.483 54.9617 51.0283C54.9681 51.7013 54.9712 52.3743 54.972 53.0473C54.9728 53.3 54.9747 53.5526 54.9778 53.8053C54.9818 54.1537 54.9817 54.5019 54.9805 54.8504C54.9815 55.0475 54.9825 55.2446 54.9835 55.4477C54.8857 56.0553 54.7225 56.2445 54.2392 56.6136C53.6353 56.8149 53.0789 56.8065 52.45 56.8088C52.2529 56.8104 52.2529 56.8104 52.0518 56.8121C51.617 56.8154 51.1822 56.8173 50.7474 56.8189C50.5246 56.82 50.5246 56.82 50.2973 56.821C49.5113 56.8245 48.7254 56.8268 47.9395 56.8284C47.1276 56.8302 46.3159 56.8359 45.5041 56.8425C44.8798 56.8468 44.2555 56.8482 43.6312 56.8488C43.3319 56.8496 43.0327 56.8516 42.7334 56.8546C42.3146 56.8587 41.8959 56.8585 41.477 56.8574C41.3536 56.8595 41.2302 56.8616 41.1031 56.8638C40.2939 56.8557 39.8803 56.6931 39.3132 56.1161C39.0768 55.6433 39.1262 55.2429 39.1259 54.7143C39.1256 54.6042 39.1253 54.494 39.125 54.3806C39.1243 54.0132 39.1248 53.6459 39.1253 53.2786C39.1252 53.0195 39.1251 52.7605 39.1248 52.5015C39.1246 51.9544 39.125 51.4073 39.1257 50.8602C39.1267 50.1748 39.1261 49.4895 39.1252 48.8042C39.1219 46.151 39.1338 43.4979 39.2005 40.8455C39.2041 40.6396 39.2078 40.4337 39.2115 40.2216C39.2173 40.0326 39.2231 39.8436 39.2291 39.6488C39.2333 39.4851 39.2375 39.3214 39.2418 39.1527C39.4599 37.7775 40.0816 37.6822 41.2968 37.6781Z" fill="#F9FAFB"/>
<path d="M66.0142 39.1992C69.681 39.1992 73.3478 39.1992 77.1257 39.1992C77.1257 47.6821 77.1257 56.165 77.1257 64.905C73.4589 64.905 69.7921 64.905 66.0142 64.905C66.0142 56.4221 66.0142 47.9392 66.0142 39.1992Z" fill="#364037"/>
<path d="M47.937 48.3203C49.5789 48.3203 51.2207 48.3203 52.9123 48.3203C52.9123 50.4547 52.9123 52.5891 52.9123 54.7882C51.2705 54.7882 49.6286 54.7882 47.937 54.7882C47.937 52.6538 47.937 50.5194 47.937 48.3203Z" fill="#364037"/>
<path d="M47.937 39.6973C49.5789 39.6973 51.2207 39.6973 52.9123 39.6973C52.9123 41.8317 52.9123 43.9661 52.9123 46.1652C51.2705 46.1652 49.6286 46.1652 47.937 46.1652C47.937 44.0308 47.937 41.8964 47.937 39.6973Z" fill="#364037"/>
<path d="M41.1375 39.5312C42.7246 39.5312 44.3117 39.5312 45.9469 39.5312C45.9469 41.7204 45.9469 43.9095 45.9469 46.165C44.3598 46.165 42.7727 46.165 41.1375 46.165C41.1375 43.9759 41.1375 41.7867 41.1375 39.5312Z" fill="#364037"/>
<path d="M41.1375 48.3203C42.7246 48.3203 44.3117 48.3203 45.9469 48.3203C45.9469 50.4547 45.9469 52.5891 45.9469 54.7882C44.3598 54.7882 42.7727 54.7882 41.1375 54.7882C41.1375 52.6538 41.1375 50.5194 41.1375 48.3203Z" fill="#364037"/>
</svg>
